<?xml version="1.0" encoding="utf-8"?>
<!-- Generator: Adobe Illustrator 24.1.2, SVG Export Plug-In . SVG Version: 6.00 Build 0)  -->
<svg version="1.1" id="Слой_1" xmlns="http://www.w3.org/2000/svg" xmlns:xlink="http://www.w3.org/1999/xlink" x="0px" y="0px"
	 viewBox="0 0 800 283.5" style="enable-background:new 0 0 800 283.5;" xml:space="preserve">
<style type="text/css">
	.st0{fill:url(#SVGID_1_);}
	.st1{fill:url(#SVGID_2_);}
	.st2{fill:url(#SVGID_3_);}
	.st3{fill:#FFFFFF;}
	.st4{fill:#00E5FF;}
	.st5{fill:none;}
</style>
<linearGradient id="SVGID_1_" gradientUnits="userSpaceOnUse" x1="0" y1="0.255" x2="800" y2="0.255">
	<stop  offset="0" style="stop-color:#5FFFDD"/>
	<stop  offset="0.3193" style="stop-color:#50D9E9"/>
	<stop  offset="0.7743" style="stop-color:#3DA8F9"/>
	<stop  offset="1" style="stop-color:#3595FF"/>
</linearGradient>
<polygon class="st0" points="0,0 0,0.5 0.1,0.5 800,0.5 800,0 "/>
<linearGradient id="SVGID_2_" gradientUnits="userSpaceOnUse" x1="0" y1="141.985" x2="9.002686e-02" y2="141.985">
	<stop  offset="0" style="stop-color:#5FFFDD"/>
	<stop  offset="0.3193" style="stop-color:#50D9E9"/>
	<stop  offset="0.7743" style="stop-color:#3DA8F9"/>
	<stop  offset="1" style="stop-color:#3595FF"/>
</linearGradient>
<rect y="0.5" class="st1" width="0.1" height="283"/>
<linearGradient id="SVGID_3_" gradientUnits="userSpaceOnUse" x1="9.002686e-02" y1="141.985" x2="800" y2="141.985">
	<stop  offset="0" style="stop-color:#5FFFDD"/>
	<stop  offset="0.3193" style="stop-color:#50D9E9"/>
	<stop  offset="0.7743" style="stop-color:#3DA8F9"/>
	<stop  offset="1" style="stop-color:#3595FF"/>
</linearGradient>
<rect x="0.1" y="0.5" class="st2" width="799.9" height="283"/>
<g>
	<g>
		<path class="st3" d="M134,149.4c-4.7,12.4-10.4,27.1-12.2,33.4h-0.2c-1.8-7.1-7.1-21.1-11.8-33.8l-16.3-43.9h-7l31.2,84h7.7
			l32.4-84h-6.8L134,149.4z"/>
		<polygon class="st3" points="177.7,105 171.2,105 171.2,189 221.6,189 222.8,183 177.7,183 		"/>
		<path class="st3" d="M258.7,104.9l-30.8,84h6.6l10.7-29h35.4l10.9,29h7.1l-32.2-84H258.7z M247.4,153.9c7.6-21.4,13-36.2,15-42.6
			h0.1c1.7,5.6,6.5,17.6,15.8,42.6H247.4z"/>
		<path class="st3" d="M341.3,105h-27.8v84h27.7c23.5,0,39.1-17.6,39.1-42.7C380.3,121,364.3,105,341.3,105z M340.2,182.9h-20.3v-72
			h20.3c23.3,0,33.1,17.2,33.1,35.6C373.3,167.4,362.4,182.9,340.2,182.9z"/>
		<path class="st3" d="M436.2,149.4c-4.7,12.4-10.4,27.1-12.2,33.4h-0.2c-1.8-7.1-7.1-21.1-11.8-33.8l-16.3-43.9h-7l31.2,84h7.7
			l32.4-84h-6.8L436.2,149.4z"/>
		<path class="st3" d="M506.6,103.8c-25,0-38.3,19.4-38.3,43.2c0,24.1,13.8,43.2,37.4,43.2c25.9,0,38.2-20.9,38.2-43.8
			C543.9,121.9,529.7,103.8,506.6,103.8z M506.1,184.1c-20.2,0-30.8-18.2-30.8-37.6c0-19,9.5-36.8,31.1-36.8
			c20.3,0,30.6,17.2,30.6,36.7C537,166.4,527.8,184.1,506.1,184.1z"/>
		<path class="st3" d="M620.6,143c0,13.7-0.1,26,0.6,38.2h-0.1c-5.3-9.1-36-56-49.1-76.2h-9.6v84h6.6v-39c0-15.2,0.1-27.5-0.5-38.5
			h0.1c6,9.2,37.2,58.1,49.7,77.5h8.9v-84h-6.6V143z"/>
		<path class="st3" d="M683.3,109.7c14.6,0,22.9,7.1,26.5,19h6.5c-2.6-15.5-14.6-25-32.8-25c-24.6,0-37.8,18.8-37.8,43.9
			c0,23.9,12.4,42.2,36.5,42.2c17.5,0,24.1-8.6,27.1-14.4c0.1,8.2,0.4,12.5,0.8,13.4h5.4v-44.3h-33.4v6h27.1v1
			c0,18.6-5.9,32.3-26.9,32.3c-20.5,0-29.8-17.4-29.8-36.6C652.7,126.1,662.3,109.7,683.3,109.7z"/>
	</g>
</g>
<path class="st3" d="M55.5,0H0.1v0.5h55.6C55.6,0.3,55.6,0.2,55.5,0z"/>
<path class="st3" d="M17.5,54.1c22.8,0,41.3-17.4,41.3-38.8c0-5.2-1.1-10.2-3.1-14.8H0.1v49.9C5.4,52.8,11.3,54.1,17.5,54.1z"/>
<path class="st3" d="M392.1,252c-13.3,0-24,10.7-24,24c0,2.7,0.5,5.4,1.3,7.8h45.3c0.8-2.5,1.3-5.1,1.3-7.8
	C416.1,262.8,405.3,252,392.1,252z"/>
<path class="st4" d="M26,213.2c-9.2,0-18,1.9-25.9,5.2v65.1h88.5c0.6-3.4,1-6.9,1-10.5C89.6,240,61.2,213.2,26,213.2z"/>
<path class="st3" d="M542.2,43.7c18.4,0,33.4-14,33.4-31.3c0-4.4-1-8.6-2.8-12.4h-61.2c-1.8,3.8-2.7,8-2.7,12.4
	C508.9,29.7,523.8,43.7,542.2,43.7z"/>
<path class="st4" d="M799.4,0.5h0.6V0.2C799.8,0.3,799.6,0.4,799.4,0.5z"/>
<path class="st4" d="M765.9,60.6c0,26.8,14,49.9,34.1,60.4V0.5h-0.6C779.6,11.2,765.9,34.1,765.9,60.6z"/>
<path class="st3" d="M800,252c-20.2,0-36.8,13.9-39.2,31.8H800V252z"/>
<rect x="821.9" y="311.9" class="st5" width="800" height="283.3"/>
</svg>
