<?xml version="1.0" encoding="utf-8"?>
<!-- Generator: Adobe Illustrator 24.1.2, SVG Export Plug-In . SVG Version: 6.00 Build 0)  -->
<svg version="1.1" id="Слой_1" xmlns="http://www.w3.org/2000/svg" xmlns:xlink="http://www.w3.org/1999/xlink" x="0px" y="0px"
	 viewBox="0 0 1280 800" style="enable-background:new 0 0 1280 800;" xml:space="preserve">
<style type="text/css">
	.st0{fill:url(#SVGID_1_);}
	.st1{fill:none;}
	.st2{fill:#FFFFFF;}
</style>
<linearGradient id="SVGID_1_" gradientUnits="userSpaceOnUse" x1="0" y1="400" x2="1280.0001" y2="400">
	<stop  offset="0" style="stop-color:#00D7FF"/>
	<stop  offset="0.0405" style="stop-color:#00D8F9"/>
	<stop  offset="0.3038" style="stop-color:#00DBD9"/>
	<stop  offset="0.5575" style="stop-color:#00DDC2"/>
	<stop  offset="0.795" style="stop-color:#00DFB4"/>
	<stop  offset="1" style="stop-color:#00DFAF"/>
</linearGradient>
<rect class="st0" width="1280" height="800"/>
<rect x="319" y="198" class="st1" width="378" height="103"/>
<rect x="-159" y="291" class="st1" width="3" height="2"/>
<g>
	<g>
		<path class="st2" d="M264.92,436.75c-6.9,0-10.84-0.1-11.81-0.31c-0.97-0.2-1.79-0.95-2.45-2.22
			c-5.83-11.5-11.68-23.02-17.56-34.57c-9.25-18.55-13.88-29.05-13.88-31.51c0-4.04,0.14-10.11,0.42-18.21
			c0.28-8.1,0.42-14.17,0.42-18.21c0-1.89,0.51-2.84,1.53-2.84c3.07,0,7.72,0.13,13.95,0.38c6.23,0.26,10.91,0.38,14.03,0.38
			c1.28,0,1.92,0.54,1.92,1.61c0,4.14-0.29,10.36-0.88,18.67c-0.59,8.31-0.88,14.53-0.88,18.67c0,3.17,5.19,14.49,15.56,33.96
			c2.81-5.06,6-11.27,9.58-18.63c4.8-9.91,7.21-16,7.21-18.25c0-3.73-0.05-9.34-0.15-16.83c-0.1-7.49-0.15-13.1-0.15-16.83
			c0-1.38,0.23-2.15,0.69-2.3h2.45c2.81,0,7.06-0.14,12.76-0.42c5.7-0.28,9.95-0.42,12.76-0.42c1.53,0,2.3,0.61,2.3,1.84
			c0,3.94-0.06,9.88-0.19,17.82c-0.13,7.95-0.19,13.91-0.19,17.9c0,3.17-5.03,14.82-15.1,34.96c-3.99,7.26-9.74,18.2-17.25,32.81
			c-0.51,1.13-0.86,1.75-1.04,1.88c-0.18,0.13-0.83,0.24-1.95,0.34C274.43,436.65,270.39,436.75,264.92,436.75z"/>
		<path class="st2" d="M409.78,437.75c-4.4,0-10.12-0.1-17.17-0.31c-9.2-0.2-14.92-0.33-17.17-0.38l-22.92-0.31
			c-2.3,0.05-5.6-0.05-9.89-0.31c-1.48-0.26-2.22-1.05-2.22-2.38c0-5.57,0.09-13.91,0.27-25.03c0.18-11.12,0.27-19.46,0.27-25.03
			c0-5.93-0.18-14.81-0.54-26.64c-0.36-11.83-0.54-20.71-0.54-26.64c0-1.12,0.77-1.69,2.3-1.69s3.82,0.08,6.86,0.23
			c3.04,0.15,5.3,0.23,6.78,0.23c1.69,0,4.19-0.09,7.51-0.27c3.32-0.18,5.83-0.27,7.51-0.27c0.77,0,1.12,0.49,1.07,1.46l-0.08,1
			c-0.61,9.61-1.3,24.05-2.07,43.31l-0.08,20.24c0,6.54,0.03,11.32,0.08,14.34c0.05,0.61,0.1,1.23,0.15,1.84
			c0.05,0.61,0.43,1,1.15,1.15c0.05,0,0.72,0,1.99,0c4.6,0,11.49-0.24,20.66-0.73c9.17-0.49,16.06-0.73,20.66-0.73
			c1.38,0,2.07,0.59,2.07,1.76c0,8.74-0.64,16.28-1.92,22.62c-0.26,1.33-0.79,2.12-1.61,2.38
			C412.67,437.7,411.62,437.75,409.78,437.75z"/>
		<path class="st2" d="M541.53,434.53c0,0.92-0.64,1.56-1.92,1.92c-1.53,0.41-6.29,0.61-14.26,0.61c-7.31,0-12.01-0.21-14.11-0.61
			c-1.74-0.36-2.84-1.51-3.3-3.45c-1.74-7.36-3.09-11.29-4.06-11.81c-0.82-0.36-7.67-0.54-20.54-0.54c-8.69,0-13.31,0.23-13.88,0.69
			c-0.87,0.82-1.84,3.55-2.91,8.2c-0.97,4.24-2.15,6.54-3.53,6.9c-1.74,0.41-7.56,0.61-17.48,0.61c-7.82,0-11.73-0.74-11.73-2.22
			c0-1.33,5.77-17.66,17.33-48.99c12.52-33.88,19.32-52.51,20.39-55.89c0.61-1.94,1.33-2.91,2.15-2.91c1.38,0,3.51,0.13,6.4,0.38
			c2.89,0.26,5.05,0.38,6.48,0.38c1.38,0,3.41-0.09,6.09-0.27c2.68-0.18,4.69-0.27,6.02-0.27c0.97,0,1.87,0.84,2.68,2.53
			c2.5,5.37,9.81,23.76,21.92,55.2C535.45,416.64,541.53,433.15,541.53,434.53z M487.18,364.69c-1.07,2.25-2.89,7.13-5.44,14.64
			c-2.76,7.97-4.14,12.65-4.14,14.03c0,0.92,1.53,1.43,4.6,1.53c1.58,0.1,4.19,0.15,7.82,0.15c3.37,0,5.24-0.41,5.6-1.23
			c0.1-0.26,0.15-0.61,0.15-1.07c0-1.69-1.18-6.34-3.53-13.95C489.94,371.44,488.25,366.74,487.18,364.69z"/>
		<path class="st2" d="M664.62,382.1c0,15.03-4.83,28.06-14.49,39.1c-8.54,9.86-20.52,15.05-35.95,15.56
			c-2.96,0.1-11.12,0.15-24.45,0.15c-2.5,0-6.27-0.08-11.31-0.23c-5.03-0.15-8.8-0.23-11.31-0.23c-1.48,0-2.22-0.59-2.22-1.76
			c0-5.62,0.22-14.07,0.65-25.34c0.43-11.27,0.65-19.71,0.65-25.34c0-5.88-0.22-14.68-0.65-26.41c-0.43-11.73-0.65-20.51-0.65-26.33
			c0-1.07,0.74-1.71,2.22-1.92c3.63-0.41,9.58-0.61,17.86-0.61c15.74,0,25.94,0.23,30.59,0.69c12.11,1.23,21.59,4.29,28.44,9.2
			c6.44,4.6,11.52,11.04,15.25,19.32C662.83,365.77,664.62,373.82,664.62,382.1z M635.26,382.1c0-8.64-2.58-15.69-7.74-21.16
			c-5.21-5.67-12.11-8.51-20.7-8.51c-7.87,0-11.81,1.05-11.81,3.14c0,3.02-0.05,7.55-0.15,13.61c-0.1,6.06-0.15,10.59-0.15,13.61
			c0,2.96,0.05,7.42,0.15,13.38c0.1,5.95,0.15,10.44,0.15,13.45c0,2.2,4.09,3.3,12.27,3.3c8.84,0,15.79-2.94,20.85-8.82
			C632.89,398.53,635.26,391.19,635.26,382.1z"/>
		<path class="st2" d="M735.05,436.75c-6.9,0-10.84-0.1-11.81-0.31c-0.97-0.2-1.79-0.95-2.45-2.22
			c-5.83-11.5-11.68-23.02-17.56-34.57c-9.25-18.55-13.88-29.05-13.88-31.51c0-4.04,0.14-10.11,0.42-18.21
			c0.28-8.1,0.42-14.17,0.42-18.21c0-1.89,0.51-2.84,1.53-2.84c3.07,0,7.72,0.13,13.95,0.38c6.24,0.26,10.91,0.38,14.03,0.38
			c1.28,0,1.92,0.54,1.92,1.61c0,4.14-0.29,10.36-0.88,18.67c-0.59,8.31-0.88,14.53-0.88,18.67c0,3.17,5.19,14.49,15.56,33.96
			c2.81-5.06,6-11.27,9.58-18.63c4.8-9.91,7.21-16,7.21-18.25c0-3.73-0.05-9.34-0.15-16.83c-0.1-7.49-0.15-13.1-0.15-16.83
			c0-1.38,0.23-2.15,0.69-2.3h2.45c2.81,0,7.07-0.14,12.76-0.42c5.7-0.28,9.95-0.42,12.76-0.42c1.53,0,2.3,0.61,2.3,1.84
			c0,3.94-0.06,9.88-0.19,17.82c-0.13,7.95-0.19,13.91-0.19,17.9c0,3.17-5.03,14.82-15.1,34.96c-3.99,7.26-9.74,18.2-17.25,32.81
			c-0.51,1.13-0.86,1.75-1.04,1.88s-0.83,0.24-1.95,0.34C744.55,436.65,740.52,436.75,735.05,436.75z"/>
		<path class="st2" d="M915.94,382.79c0,15.95-5.09,29.31-15.26,40.09c-10.38,10.94-23.51,16.41-39.4,16.41
			c-15.79,0-28.9-5.52-39.33-16.56c-10.22-10.78-15.33-24.1-15.33-39.94c0-15.89,5.11-29.26,15.33-40.09
			c10.43-11.09,23.53-16.64,39.33-16.64c15.69,0,28.77,5.55,39.25,16.64C910.8,353.63,915.94,366.99,915.94,382.79z M886.88,382.63
			c0-7.67-2.33-14.18-6.97-19.55c-4.86-5.62-11.07-8.43-18.63-8.43c-7.21,0-13.31,2.91-18.32,8.74c-4.86,5.62-7.28,12.09-7.28,19.4
			c0,7.82,2.27,14.34,6.82,19.55c4.8,5.47,11.06,8.2,18.78,8.2c7.21,0,13.34-2.89,18.4-8.66
			C884.48,396.35,886.88,389.94,886.88,382.63z"/>
		<path class="st2" d="M1045.16,331.27c0,5.83-0.24,14.58-0.73,26.26c-0.49,11.68-0.73,20.46-0.73,26.33v50.52
			c0,1.38-0.74,2.07-2.22,2.07c-1.23,0-3.08,0.05-5.56,0.15c-2.48,0.1-4.33,0.15-5.56,0.15c-1.33,0-3.32-0.1-5.98-0.31
			c-2.66-0.2-4.65-0.31-5.98-0.31c-0.92,0-2.02-0.84-3.3-2.53c-3.68-4.96-11.96-15.95-24.84-32.96c-3.53-4.75-8.89-11.75-16.1-21
			c-0.21-0.31-0.59-0.61-1.15-0.92c-0.41,0.36-0.61,0.92-0.61,1.69c0,5.93,0.17,14.82,0.5,26.68c0.33,11.86,0.5,20.75,0.5,26.68
			c0,1.79-0.69,2.68-2.07,2.68h-26.53c-1.48,0-2.22-0.79-2.22-2.38c0-5.52,0.27-13.85,0.8-24.99c0.54-11.14,0.8-19.5,0.8-25.07
			c0-5.88-0.24-14.67-0.73-26.37c-0.49-11.7-0.73-20.47-0.73-26.29c0-1.12,1-1.69,2.99-1.69c2.96,0,6.62-0.2,10.96-0.61
			c1.02-0.1,3.04-0.43,6.06-1c2.55-0.46,4.57-0.69,6.06-0.69c0.61,0,1.56,0.87,2.84,2.61l28.59,39.17
			c2.55,3.53,6.41,8.69,11.58,15.49c1.28,1.58,2.38,2.38,3.3,2.38c0.66,0,1-1.99,1-5.98c0-5.37-0.29-13.44-0.88-24.22
			c-0.59-10.78-0.88-18.88-0.88-24.3c0-1.89,0.54-2.84,1.61-2.84c3.07,0,7.69-0.13,13.88-0.38c6.18-0.26,10.81-0.38,13.88-0.38
			C1044.68,328.89,1045.16,329.69,1045.16,331.27z"/>
		<path class="st2" d="M1175.54,433.99c0.1,1.38-0.61,2.07-2.15,2.07c-0.97,0-3.77-0.56-8.39-1.69c-4.63-1.12-7.47-1.89-8.55-2.3
			c-10.68,4.19-20.93,6.29-30.74,6.29c-15.79,0-28.75-5.26-38.87-15.79c-10.02-10.37-15.03-23.48-15.03-39.33
			c0-16.2,4.85-29.64,14.56-40.32c10.02-11.04,23.02-16.56,39.02-16.56c7.77,0,15.08,1.48,21.92,4.45
			c7.41,3.27,13.24,7.87,17.48,13.8c0.87,1.23,1.3,2.1,1.3,2.61c0,1.64-2.29,5.3-6.86,11c-4.57,5.7-7.53,8.55-8.85,8.55
			c-0.31,0-1.48-1.05-3.53-3.14c-2.5-2.5-5.06-4.45-7.67-5.83c-3.88-2.1-8.18-3.14-12.88-3.14c-7.67,0-13.75,2.86-18.25,8.59
			c-4.19,5.26-6.29,11.83-6.29,19.7c0,8.33,2.17,14.92,6.52,19.78c4.5,5.01,10.86,7.51,19.09,7.51c5.21,0,11.04-1.3,17.48-3.91
			c-0.15-1.69-0.61-5.98-1.38-12.88c-0.67-5.31-1-9.61-1-12.88c0-0.97,0.33-1.56,1-1.76c0.25-0.1,0.66-0.15,1.23-0.15
			c1.48,0,3.72,0.14,6.71,0.42c2.99,0.28,5.25,0.42,6.78,0.42c1.63,0,4.09-0.11,7.36-0.35c3.27-0.23,5.72-0.34,7.36-0.34
			c1.28,0,1.92,0.84,1.92,2.53c0,2.45-0.14,6.16-0.42,11.12c-0.28,4.96-0.42,8.66-0.42,11.12c0,6.59,0.49,16.46,1.46,29.59
			L1175.54,433.99z"/>
	</g>
</g>
<g>
	<g>
	</g>
</g>
</svg>
